<svg xmlns="http://www.w3.org/2000/svg" viewBox="0 0 512 512" width="512" height="512">
<!-- comicle-placeholder: arte provisória gerada por "pnpm avatars:generate". A arte definitiva substitui este arquivo (docs/avatares-guia-de-artes.md). -->
<g fill="none" stroke-linecap="round" stroke-linejoin="round">
<path fill="#EC407A" d="M184.7,310.5C187.4,312.8 190.9,314.2 192.6,316.7C194.4,319.2 195.6,322.9 195.2,325.6C194.7,328.3 192.2,331.1 189.9,333C187.6,334.9 184.4,336.1 181.3,337.2C178.3,338.2 174.8,338.8 171.5,339.1C168.1,339.5 164.5,339.5 161,339.1C157.5,338.8 153.9,338.1 150.6,337C147.3,335.8 143.7,334.4 141.1,332.2C138.5,330 135.8,326.9 135.1,323.9C134.5,320.9 135.5,317 137.3,314.2C139,311.5 142.3,309.3 145.4,307.5C148.4,305.8 152,304.6 155.4,303.7C158.9,302.8 162.5,302.3 166,302.2C169.5,302.1 173.3,301.7 176.4,303.1C179.5,304.4 182,308.3 184.7,310.5Z"/>
<path fill="#EC407A" d="M317.5,314.7C318.9,311.9 322.4,310 325.3,308.4C328.2,306.9 331.7,306 335,305.4C338.3,304.8 341.8,304.6 345.2,304.7C348.6,304.9 352.1,305.3 355.4,306.1C358.7,306.9 362.1,307.9 365,309.6C367.9,311.2 371,313.3 372.6,316C374.2,318.7 375.1,322.8 374.4,325.8C373.7,328.8 370.8,331.9 368.3,334.1C365.7,336.3 362.3,337.8 359.1,339C355.9,340.1 352.4,340.8 349.2,341.1C345.9,341.4 342.6,341.4 339.5,341C336.3,340.6 333.2,339.8 330.3,338.6C327.5,337.4 324.4,335.9 322.1,333.7C319.9,331.4 317.6,328.5 316.8,325.3C316,322.2 316,317.5 317.5,314.7Z"/>
</g>
</svg>
